<svg width="108" height="84" viewBox="0 0 108 84" fill="none" xmlns="http://www.w3.org/2000/svg">
<path d="M57.0576 76.7862C58.2634 78.0488 59.0083 79.0348 59.9588 79.7513C60.6185 80.2478 61.5477 80.4677 62.3918 80.6379C63.2572 80.8153 64.1155 80.8507 63.9169 82.0779C63.7254 83.2767 63.2288 84.3265 61.796 83.8867C60.6255 83.5249 59.3913 83.0142 58.4975 82.2127C57.1143 80.9713 55.8162 80.0279 53.8301 80.4535C53.3335 80.5599 52.383 80.3258 52.2341 79.9924C51.5744 78.4815 50.4394 77.7084 48.9924 77.0912C47.9567 76.6514 47.0914 75.8286 46.1054 75.2611C42.353 73.0976 38.5154 71.0689 34.834 68.799C31.4149 66.6923 28.152 64.3302 24.811 62.0887C24.0023 61.5496 23.2079 60.9821 22.3425 60.5565C21.9524 60.3579 21.2785 60.2586 20.9522 60.4643C18.1148 62.2731 15.3058 64.1316 12.5394 66.0468C10.3192 67.579 8.20535 69.2672 5.97093 70.771C5.53114 71.0689 4.72959 70.8419 4.09827 70.8561C4.1763 70.2248 4.02025 69.3311 4.37492 68.9977C5.94965 67.5222 7.64497 66.1674 9.36157 64.848C11.0853 63.5216 12.8657 62.266 14.6532 61.0318C15.9868 60.1167 17.3771 59.2868 18.8667 58.3434C17.7176 56.8325 16.4621 57.251 15.6534 57.8894C14.8802 58.5065 14.334 58.6342 13.3622 58.6555C12.2415 58.6839 11.142 59.5138 10.0354 60.0103C7.77975 61.0176 5.55242 62.0745 3.26125 63.0037C2.64413 63.252 1.79292 63.3017 1.18998 63.0747C0.665069 62.8761 0.118877 62.2022 0.00538306 61.656C-0.0655509 61.3226 0.579948 60.592 1.03393 60.4288C3.35347 59.5918 5.72975 58.9109 8.06348 58.1093C8.70189 57.8894 9.29064 57.4922 9.8723 57.1304C10.2412 56.8963 10.5107 56.4494 10.9008 56.3147C12.2486 55.8394 13.6389 55.4635 15.2633 54.9669C13.3197 53.5553 11.5534 52.5197 10.1064 51.1507C8.77282 49.8881 7.76556 48.2849 6.63062 46.8095C5.65173 45.5327 4.80052 44.1424 3.71523 42.972C1.57302 40.6454 1.64396 37.5455 0.806937 34.7862C0.565761 33.9847 1.26091 32.9136 1.495 31.9559C1.62977 31.4168 1.68652 30.8565 1.82839 30.3174C2.11922 29.1541 2.3533 27.9624 2.7789 26.8487C3.28963 25.5222 4.31817 24.3093 4.51678 22.9615C5.00623 19.5851 7.14843 17.2442 9.10621 14.7686C10.986 12.3924 12.887 10.0303 14.8519 7.71781C15.4903 6.96591 16.3982 6.44809 17.1147 5.75294C17.8807 5.00813 18.5475 4.16402 19.2923 3.39084C19.5832 3.08582 19.9307 2.79499 20.3138 2.62475C21.6757 2.01472 23.2646 1.71679 24.4067 0.830119C26.3857 -0.709148 28.3293 0.298114 30.202 0.645691C30.9468 0.780465 31.6561 2.0289 32.0746 2.91558C33.0819 5.05069 34.6921 6.90207 34.7417 9.49116C34.7914 11.9668 35.3305 14.4353 35.4369 16.9109C35.5149 18.8757 35.2596 20.8548 35.1177 23.4013C35.9122 22.4934 36.4087 21.9826 36.8414 21.4152C38.0473 19.8475 39.2248 18.2657 40.4094 16.6839C40.4874 16.5846 40.5725 16.4498 40.6789 16.4214C43.4737 15.6553 45.0697 13.1797 47.0843 11.4702C50.0564 8.94497 53.5038 7.65397 56.8235 5.95865C57.696 5.51176 58.4479 4.70311 59.3558 4.46903C61.647 3.89447 64.1013 3.83063 66.3003 3.03617C68.5985 2.20624 70.8542 1.77354 73.2021 2.1353C75.2025 2.44032 77.2028 2.91558 79.0968 3.60364C79.8912 3.89447 80.4729 4.88045 81.0616 5.62526C82.5229 7.46954 83.9274 9.34929 85.1758 10.9737C86.5732 10.0161 88.3394 8.81019 90.0915 7.59013C92.1273 6.17145 94.0993 4.65346 96.206 3.34827C97.0289 2.84464 98.1354 2.72406 99.1285 2.64603C99.2988 2.63184 99.9017 3.90865 99.7102 4.19948C99.0789 5.15709 98.2489 6.01539 97.3552 6.74601C96.5323 7.41279 95.3761 7.70362 94.6455 8.43424C93.1772 9.89548 91.5882 11.0091 89.6659 11.8391C86.7222 13.1017 85.4737 16.1164 86.2895 19.1736C86.3959 19.5851 86.332 20.0461 86.3107 20.4859C86.2398 21.8691 86.2469 23.2594 86.0483 24.6285C85.9064 25.6003 85.4808 26.5366 85.1261 27.6644C85.1545 27.6786 85.5517 27.8701 85.9419 28.0546C85.9064 27.9056 85.8639 27.7637 85.8284 27.6148C86.9066 27.2176 87.9919 26.8487 89.0559 26.4089C90.6945 25.7421 92.2976 24.9619 93.9503 24.3447C96.3976 23.4297 98.9086 22.6636 101.349 21.7202C102.462 21.2875 103.498 20.6207 104.527 19.9965C105.896 19.1666 106.86 19.6134 107.506 20.9115C108.236 22.3799 106.903 22.77 106.066 23.1034C102.739 24.4157 99.3484 25.5719 96.0003 26.8274C92.404 28.1752 88.7792 29.4803 85.2538 30.9983C84.3884 31.3672 83.6152 32.3745 83.1896 33.2682C82.303 35.1338 81.6717 37.1199 80.9339 39.0493C80.9127 39.1061 80.8559 39.1628 80.8559 39.2267C80.7708 44.3836 76.3871 47.072 74.1456 50.9946C73.5994 51.9522 73.4362 53.1297 72.8688 54.0661C71.5636 56.2012 70.1094 58.2441 68.7191 60.3224C67.3217 62.415 65.9101 64.5005 64.5269 66.6001C63.8247 67.6712 63.165 68.7636 62.484 69.8489C62.2428 70.2248 62.0229 70.6221 61.7463 70.9767C60.1503 72.9416 58.5685 74.8994 57.0576 76.7862ZM82.1611 13.1868C81.1042 11.6972 79.9763 10.5835 79.4301 9.2287C78.4087 6.66799 75.9615 5.96574 73.947 5.40536C70.4996 4.45484 67.0309 5.95155 63.6402 6.81695C62.3563 7.14324 61.0653 7.54757 59.8666 8.10085C57.696 9.09393 55.5041 10.0941 53.4754 11.3354C51.2694 12.6832 49.1626 14.2154 47.1623 15.8539C45.8004 16.9676 44.7009 18.4076 43.4737 19.6915C43.1829 19.9965 42.8353 20.2447 42.5232 20.5427C41.899 21.1456 41.2464 21.7344 40.6718 22.387C40.3384 22.7629 40.1753 23.2807 39.8774 23.6921C38.2033 25.9691 36.4938 28.2106 34.834 30.4947C34.1956 31.3743 33.5217 32.6298 32.3867 31.8424C31.571 31.2821 30.6063 29.4165 30.8971 29.0335C32.0888 27.4658 31.6561 25.8556 31.7129 24.217C31.7838 22.2664 32.0888 20.3228 32.1527 18.365C32.181 17.5634 31.649 16.7264 31.7271 15.9461C32.0817 12.4136 31.7909 9.07974 29.9111 5.9019C28.5067 3.5327 26.9177 3.01489 24.5769 4.61799C24.0591 4.97266 23.3923 5.10744 22.8248 5.39827C22.1864 5.72456 21.47 6.0083 20.9806 6.50484C19.3845 8.12213 17.8666 9.81745 16.3486 11.5057C14.9795 13.0237 13.5325 14.492 12.3408 16.1448C11.0711 17.9039 10.0213 19.8404 8.95016 21.7344C8.43234 22.6423 8.09186 23.6567 7.65916 24.6143C7.11297 25.8343 6.7583 27.2176 5.93546 28.2106C5.05588 29.2817 4.86436 30.2606 5.07007 31.5303C5.22612 32.4596 5.21194 33.4243 5.16228 34.3748C5.09844 35.453 4.48841 36.7014 4.85017 37.5739C6.05605 40.4822 7.25483 43.4756 10.2482 45.1851C10.7448 45.4689 10.9718 46.2066 11.3264 46.7386C11.6031 47.1571 11.8017 47.6749 12.1706 47.987C13.9723 49.5192 15.9797 50.8457 17.597 52.5481C18.4837 53.4844 19.2852 53.4347 20.1081 53.1155C22.3283 52.2572 24.4634 51.1791 26.6624 50.2711C28.5421 49.4979 30.4857 48.8879 32.3655 48.1076C33.777 47.5189 35.1461 46.7953 36.4938 46.0718C36.6782 45.9725 36.7776 45.476 36.7208 45.2135C36.5009 44.2559 36.3449 43.2415 35.8909 42.3974C35.2667 41.2554 35.4085 40.312 36.4938 39.8651C36.8343 39.7232 37.9551 40.6241 38.1962 41.2554C39.6717 45.0433 41.0123 48.8879 42.353 52.7254C42.5019 53.1439 42.5019 53.8674 42.2537 54.1015C41.9983 54.3356 41.1826 54.3285 40.8917 54.0873C39.849 53.2361 38.3665 52.7112 38.4587 50.8953C38.4871 50.3278 37.9267 49.732 37.6004 49.0865C32.9897 51.9522 28.5989 54.669 23.9172 57.5844C25.0876 58.0029 25.8112 58.0951 26.3361 58.4711C28.5421 60.0387 30.7411 61.6276 32.8549 63.3158C35.3589 65.3162 37.948 67.1392 40.8279 68.5933C44.4313 70.4092 47.9709 72.3599 51.4254 74.4312C52.9434 75.3392 54.2273 74.8284 54.9863 73.8637C57.3768 70.8349 59.5261 67.6215 61.7321 64.4508C63.3281 62.1596 64.8603 59.8259 66.4279 57.5205C67.3643 56.1373 68.3786 54.7896 69.244 53.3638C69.9321 52.2289 70.379 50.9521 71.067 49.8171C71.5068 49.0865 72.6347 48.5403 72.6914 47.8522C72.89 45.3057 74.9117 43.7664 75.777 41.6101C76.763 39.1699 77.9973 36.8291 79.118 34.4386C78.9336 34.2542 78.7492 34.0769 78.5648 33.8924C76.763 34.3251 74.8691 34.5308 73.1738 35.226C69.1163 36.8859 65.1582 38.794 61.1434 40.5531C59.7176 41.1774 58.2422 41.6739 57.0505 42.135C57.7456 43.6671 58.4195 44.7099 58.6394 45.8519C58.7316 46.3272 57.9372 47.1216 57.3697 47.5118C57.1143 47.682 56.1354 47.3415 55.9723 46.9939C54.5465 44.0857 53.1065 41.1703 51.922 38.1627C50.9572 35.7084 50.2905 33.1405 49.5953 30.5869C49.4464 30.0265 49.7443 29.3385 49.8436 28.7143C50.5671 29.0051 51.6027 29.0902 51.9432 29.6222C52.7732 30.9061 53.2768 32.4028 53.8372 33.6584C63.2005 26.8913 72.5708 20.1171 82.1611 13.1868ZM55.8588 39.2409C64.2716 35.9637 72.6914 32.6866 80.8417 29.5158C81.1538 28.2461 81.4518 27.2317 81.6504 26.2032C81.9057 24.898 82.1256 23.5786 82.2888 22.2593C82.3597 21.706 82.1895 21.1243 82.2462 20.5569C82.3455 19.4503 82.5229 18.3508 82.6718 17.2442C80.636 18.3366 79.1322 19.6063 77.5646 20.798C74.9046 22.8196 72.2162 24.7916 69.5207 26.7636C69.2298 26.9764 68.783 26.9693 68.4567 27.1537C67.726 27.558 66.9812 27.9553 66.3357 28.4731C65.5058 29.1257 64.8461 30.0124 63.9807 30.594C61.569 32.2042 59.0934 33.7222 56.6391 35.2615C55.1211 36.2049 54.8515 37.503 55.8588 39.2409Z" fill="#365275"/>
<path d="M82.1615 13.1868C72.5783 20.117 63.2008 26.8912 53.8234 33.6654C53.263 32.417 52.7593 30.9203 51.9294 29.6293C51.5889 29.0973 50.5533 29.0122 49.8298 28.7213C49.7376 29.3526 49.4325 30.0336 49.5815 30.594C50.2767 33.1405 50.9434 35.7154 51.9081 38.1697C53.0927 41.1773 54.5327 44.0927 55.9585 47.001C56.1287 47.3486 57.1076 47.6891 57.3559 47.5188C57.9233 47.1358 58.7178 46.3413 58.6256 45.859C58.4057 44.724 57.7318 43.6742 57.0367 42.142C58.2284 41.6881 59.7038 41.1915 61.1296 40.5602C65.1444 38.7939 69.1025 36.8929 73.16 35.2331C74.8553 34.5379 76.7492 34.3322 78.5509 33.8995C78.7354 34.0839 78.9198 34.2613 79.1042 34.4457C77.9764 36.8291 76.7421 39.1699 75.7632 41.6171C74.8978 43.7735 72.8762 45.3128 72.6776 47.8593C72.628 48.5474 71.493 49.0936 71.0532 49.8242C70.3652 50.9591 69.9183 52.2359 69.2302 53.3709C68.3648 54.8037 67.3576 56.1444 66.4141 57.5276C64.8465 59.8401 63.3143 62.1738 61.7183 64.4579C59.5123 67.6286 57.363 70.8419 54.9725 73.8708C54.2135 74.8355 52.9296 75.3462 51.4116 74.4383C47.95 72.367 44.4104 70.4163 40.8141 68.6004C37.9342 67.1463 35.3451 65.3233 32.8411 63.3229C30.7273 61.6347 28.5354 60.0458 26.3223 58.4781C25.7973 58.1022 25.0738 58.01 23.9034 57.5914C28.5921 54.6832 32.9759 51.9593 37.5866 49.0936C37.9129 49.7391 38.4733 50.3349 38.4449 50.9024C38.3527 52.7183 39.8352 53.2432 40.8779 54.0944C41.1687 54.3356 41.9845 54.3427 42.2398 54.1086C42.4881 53.8816 42.4881 53.151 42.3391 52.7325C40.9985 48.8879 39.6578 45.0503 38.1824 41.2625C37.9412 40.6382 36.8205 39.7374 36.48 39.8721C35.3947 40.319 35.2528 41.2625 35.8771 42.4045C36.3381 43.2415 36.4942 44.263 36.707 45.2206C36.7708 45.483 36.6644 45.9796 36.48 46.0789C35.1252 46.8024 33.7632 47.5259 32.3517 48.1147C30.479 48.8949 28.5283 49.505 26.6486 50.2782C24.4496 51.1861 22.3145 52.2643 20.0943 53.1226C19.2785 53.4418 18.477 53.4915 17.5832 52.5551C15.973 50.8527 13.9656 49.5263 12.1567 47.9941C11.7879 47.682 11.5893 47.1642 11.3126 46.7456C10.958 46.2136 10.731 45.4759 10.2344 45.1922C7.24812 43.4827 6.04224 40.4893 4.83636 37.581C4.4746 36.7085 5.08463 35.4601 5.14847 34.3819C5.20522 33.4384 5.21231 32.4666 5.05626 31.5374C4.84346 30.2606 5.04207 29.2817 5.92165 28.2177C6.74449 27.2175 7.09206 25.8343 7.64535 24.6213C8.07805 23.6637 8.41853 22.6565 8.93635 21.7414C10.0075 19.8404 11.0573 17.911 12.327 16.1518C13.5187 14.4991 14.9728 13.0307 16.3348 11.5127C17.8527 9.82452 19.3707 8.1292 20.9667 6.5119C21.4562 6.01536 22.1726 5.73872 22.811 5.40533C23.3785 5.1145 24.0453 4.97973 24.5631 4.62506C26.9039 3.02195 28.4928 3.53977 29.8973 5.90896C31.7771 9.0868 32.0608 12.4207 31.7132 15.9532C31.6352 16.7335 32.1672 17.5705 32.1388 18.3721C32.0679 20.3227 31.7629 22.2663 31.6991 24.2241C31.6423 25.8627 32.075 27.4729 30.8833 29.0405C30.5925 29.4165 31.5572 31.2891 32.3729 31.8495C33.5079 32.6298 34.1888 31.3813 34.8202 30.5018C36.4729 28.2177 38.1895 25.9691 39.8636 23.6992C40.1615 23.2878 40.3317 22.7771 40.658 22.394C41.2326 21.7414 41.8781 21.1527 42.5094 20.5497C42.8144 20.2589 43.162 20.0035 43.4599 19.6985C44.6871 18.4146 45.7865 16.9747 47.1485 15.861C49.1488 14.2224 51.2555 12.6902 53.4616 11.3425C55.4903 10.1012 57.6822 9.10099 59.8527 8.10791C61.0586 7.55463 62.3425 7.15031 63.6264 6.82401C67.0242 5.96571 70.4857 4.46191 73.9402 5.41952C75.9477 5.9728 78.402 6.68214 79.4234 9.24286C79.9696 10.5835 81.1046 11.6972 82.1615 13.1868Z" fill="#FFBDA6"/>
<path d="M55.858 39.241C54.8507 37.5031 55.1132 36.205 56.6312 35.2545C59.0926 33.7153 61.5682 32.2044 63.9728 30.5871C64.8382 30.0054 65.505 29.1258 66.3278 28.4662C66.9733 27.9483 67.7182 27.5511 68.4488 27.1468C68.7751 26.9624 69.222 26.9694 69.5128 26.7566C72.2083 24.7918 74.8967 22.8127 77.5567 20.7911C79.1243 19.5994 80.621 18.3297 82.6639 17.2373C82.515 18.3439 82.3376 19.4434 82.2383 20.5499C82.1887 21.1103 82.3518 21.692 82.2809 22.2523C82.1178 23.5717 81.8979 24.8911 81.6425 26.1963C81.4368 27.2248 81.146 28.2392 80.8338 29.5089C72.6977 32.6867 64.2779 35.9639 55.858 39.241Z" fill="#FFBDA6"/>
</svg>
